# xmcd CD database file
#
# Track frame offsets:
#	150
#	12420
#	36322
#	55092
#	63950
#	84242
#	99695
#	122142
#	136562
#	158270
#	176172
#	195880
#	210672
#	219155
#	241992
#
# Disc length: 3629 seconds
#
# Revision: 0
# Processed by: cddbd v1.5.2PL0 Copyright (c) Steve Scherf et al.
# Submitted via: CDex 1.70beta2
#
DISCID=ba0e2b0f
DTITLE=Dorota Borkowska - Jazz Standards
DYEAR=1997
DGENRE=Jazz
TTITLE0=A Felicidade
TTITLE1=Manhattan
TTITLE2=Girl From Ipanema
TTITLE3=Nice Work
TTITLE4=Blue Moon
TTITLE5=How High The Moon
TTITLE6=Corcovado
TTITLE7=All The Things You Are
TTITLE8=Wave
TTITLE9=Moon River
TTITLE10=Desafinado
TTITLE11=How Insensitive
TTITLE12='S Wonderful
TTITLE13=What A Wonderful World
TTITLE14=Bachianas Brasilieras No. 5 - I Aria (Cantilena)
EXTD=YEAR: 1997
EXTT0=
EXTT1=
EXTT2=
EXTT3=
EXTT4=
EXTT5=
EXTT6=
EXTT7=
EXTT8=
EXTT9=
EXTT10=
EXTT11=
EXTT12=
EXTT13=
EXTT14=
PLAYORDER=
